<svg width="24" height="24" viewBox="0 0 24 24" fill="none" xmlns="http://www.w3.org/2000/svg">
<path fill-rule="evenodd" clip-rule="evenodd" d="M7 4C5.34315 4 4 5.34315 4 7L4 17C4 18.6569 5.34315 20 7 20H17C18.6569 20 20 18.6569 20 17V7C20 5.34315 18.6569 4 17 4H7ZM6.97247 6.5501C6.97247 6.19111 6.68145 5.9001 6.32247 5.9001C5.96348 5.9001 5.67247 6.19111 5.67247 6.5501L5.67247 16.3541C5.67247 17.431 6.54551 18.3041 7.62247 18.3041H17.4935C17.8525 18.3041 18.1435 18.0131 18.1435 17.6541C18.1435 17.2951 17.8525 17.0041 17.4935 17.0041H7.62247C7.26348 17.0041 6.97247 16.713 6.97247 16.3541L6.97247 6.5501ZM17.8112 8.83876C17.6718 8.71942 17.4885 8.66458 17.3064 8.68778L15.0567 8.97443C14.7006 9.01981 14.4487 9.34527 14.4941 9.70138C14.5395 10.0575 14.8649 10.3094 15.221 10.264L15.8325 10.1861L13.7398 12.3771L11.8436 10.3918C11.7209 10.2633 11.5511 10.1907 11.3735 10.1907C11.196 10.1907 11.0261 10.2633 10.9035 10.3918L8.5372 12.8692C8.28925 13.1288 8.2987 13.5403 8.5583 13.7882C8.8179 14.0362 9.22935 14.0267 9.4773 13.7671L11.3735 11.7818L13.2698 13.7671C13.3924 13.8956 13.5622 13.9682 13.7398 13.9682C13.9174 13.9682 14.0872 13.8956 14.2099 13.7671L16.7872 11.0687L16.8012 11.5635C16.8113 11.9224 17.1104 12.2051 17.4692 12.195C17.828 12.1849 18.1107 11.8858 18.1006 11.5269L18.0383 9.31426C18.0331 9.13082 17.9507 8.9581 17.8112 8.83876Z" fill="#626F84"/>
</svg>
